<svg xmlns="http://www.w3.org/2000/svg" viewBox="0 0 120 160" width="120" height="160" aria-label="Cousin, the avatar charm" id="cousin-avatar">
  <defs>
    <radialGradient id="av-body" cx="0.4" cy="0.35" r="0.7">
      <stop offset="0" stop-color="#FFF3C4"></stop>
      <stop offset="0.6" stop-color="#F7C948"></stop>
      <stop offset="1" stop-color="#CB6E17"></stop>
    </radialGradient>
  </defs>
  
  <path d="M 60 0 L 60 32" stroke="#2B231C" stroke-width="1.5" stroke-dasharray="0 5" stroke-linecap="round"></path>
  
  <circle cx="60" cy="36" r="5" fill="none" stroke="#2B231C" stroke-width="2"></circle>
  
  <rect x="56" y="40" width="8" height="10" rx="2" fill="#FBF7EC" stroke="#2B231C" stroke-width="1.5"></rect>
  
  <circle cx="60" cy="95" r="42" fill="url(#av-body)" stroke="#2B231C" stroke-width="2.5"></circle>
  
  <circle cx="60" cy="95" r="36" fill="none" stroke="#2B231C" stroke-width="0.8" opacity="0.3"></circle>

  
  <g id="cousin-face" style="transform-origin: 60px 95px;">
    
    <g id="cousin-eyes">
      <circle cx="48" cy="88" r="5" fill="#FBF7EC" stroke="#2B231C" stroke-width="1.5"></circle>
      <circle cx="72" cy="88" r="5" fill="#FBF7EC" stroke="#2B231C" stroke-width="1.5"></circle>
      <circle class="pupil" cx="48" cy="88" r="2.2" fill="#1A1612"></circle>
      <circle class="pupil" cx="72" cy="88" r="2.2" fill="#1A1612"></circle>
    </g>
    
    <ellipse cx="43" cy="102" rx="5" ry="3" fill="#B44D12" opacity="0.35"></ellipse>
    <ellipse cx="77" cy="102" rx="5" ry="3" fill="#B44D12" opacity="0.35"></ellipse>
    
    <path d="M 50 106 Q 60 114, 70 106" stroke="#2B231C" stroke-width="2" fill="none" stroke-linecap="round"></path>
  </g>

  
  <path d="M 90 68 L 91.5 72 L 95.5 73.5 L 91.5 75 L 90 79 L 88.5 75 L 84.5 73.5 L 88.5 72 Z" fill="#FFFBEA" opacity="0.9"></path>
</svg>