<svg xmlns="http://www.w3.org/2000/svg" viewBox="0 0 200 280" width="200" height="280" aria-label="Clover charm">
  <defs>
    <linearGradient id="c-grad" x1="0" y1="0" x2="0" y2="1">
      <stop offset="0" stop-color="#FFF3C4"></stop>
      <stop offset="1" stop-color="#DE911D"></stop>
    </linearGradient>
  </defs>
  <path d="M 100 0 L 100 70" stroke="#2B231C" stroke-width="1.5" stroke-linecap="round" stroke-dasharray="0 6"></path>
  <g stroke="#2B231C" stroke-width="1.4" fill="none">
    <ellipse cx="100" cy="14" rx="4" ry="2"></ellipse>
    <ellipse cx="100" cy="28" rx="2" ry="4"></ellipse>
    <ellipse cx="100" cy="42" rx="4" ry="2"></ellipse>
    <ellipse cx="100" cy="56" rx="2" ry="4"></ellipse>
  </g>
  <circle cx="100" cy="78" r="7" fill="none" stroke="#2B231C" stroke-width="2"></circle>
  <circle cx="100" cy="95" r="5" fill="none" stroke="#2B231C" stroke-width="1.5"></circle>
  
  <g fill="url(#c-grad)" stroke="#2B231C" stroke-width="1.8" stroke-linejoin="round">
    <path d="M 100 175 C 85 145, 55 145, 65 170 C 60 175, 85 175, 100 175 Z"></path>
    <path d="M 100 175 C 115 145, 145 145, 135 170 C 140 175, 115 175, 100 175 Z"></path>
    <path d="M 100 175 C 85 205, 55 205, 65 180 C 60 175, 85 175, 100 175 Z"></path>
    <path d="M 100 175 C 115 205, 145 205, 135 180 C 140 175, 115 175, 100 175 Z"></path>
  </g>
  <path d="M 100 175 L 100 235" stroke="#2B231C" stroke-width="2" stroke-linecap="round"></path>
  <circle cx="100" cy="175" r="4" fill="#2B231C"></circle>
</svg>