<svg xmlns="http://www.w3.org/2000/svg" viewBox="0 0 200 280" width="200" height="280" aria-label="Sun charm">
  <defs>
    <radialGradient id="sn-grad" cx="0.5" cy="0.45" r="0.6">
      <stop offset="0" stop-color="#FFF3C4"></stop>
      <stop offset="1" stop-color="#DE911D"></stop>
    </radialGradient>
  </defs>
  <path d="M 100 0 L 100 70" stroke="#2B231C" stroke-width="1.5" stroke-linecap="round" stroke-dasharray="0 6"></path>
  <g stroke="#2B231C" stroke-width="1.4" fill="none">
    <ellipse cx="100" cy="14" rx="4" ry="2"></ellipse>
    <ellipse cx="100" cy="28" rx="2" ry="4"></ellipse>
    <ellipse cx="100" cy="42" rx="4" ry="2"></ellipse>
    <ellipse cx="100" cy="56" rx="2" ry="4"></ellipse>
  </g>
  <circle cx="100" cy="78" r="7" fill="none" stroke="#2B231C" stroke-width="2"></circle>
  <circle cx="100" cy="95" r="5" fill="none" stroke="#2B231C" stroke-width="1.5"></circle>
  
  <g stroke="#2B231C" stroke-width="2" stroke-linecap="round">
    <line x1="100" y1="118" x2="100" y2="108"></line>
    <line x1="100" y1="245" x2="100" y2="255"></line>
    <line x1="37" y1="180" x2="27" y2="180"></line>
    <line x1="163" y1="180" x2="173" y2="180"></line>
    <line x1="56" y1="136" x2="49" y2="129"></line>
    <line x1="144" y1="136" x2="151" y2="129"></line>
    <line x1="56" y1="224" x2="49" y2="231"></line>
    <line x1="144" y1="224" x2="151" y2="231"></line>
  </g>
  
  <circle cx="100" cy="180" r="55" fill="url(#sn-grad)" stroke="#2B231C" stroke-width="2"></circle>
  
  <circle cx="82" cy="172" r="3" fill="#2B231C"></circle>
  <circle cx="118" cy="172" r="3" fill="#2B231C"></circle>
  <path d="M 85 195 Q 100 208, 115 195" stroke="#2B231C" stroke-width="2" fill="none" stroke-linecap="round"></path>
  
  <ellipse cx="75" cy="188" rx="5" ry="3" fill="#B44D12" opacity="0.4"></ellipse>
  <ellipse cx="125" cy="188" rx="5" ry="3" fill="#B44D12" opacity="0.4"></ellipse>
</svg>