<svg xmlns="http://www.w3.org/2000/svg" viewBox="0 0 200 280" width="200" height="280" aria-label="Flower charm">
  <defs>
    <linearGradient id="f-grad" x1="0" y1="0" x2="0" y2="1">
      <stop offset="0" stop-color="#FFF3C4"></stop>
      <stop offset="1" stop-color="#F0B429"></stop>
    </linearGradient>
  </defs>
  <path d="M 100 0 L 100 70" stroke="#2B231C" stroke-width="1.5" stroke-linecap="round" stroke-dasharray="0 6"></path>
  <g stroke="#2B231C" stroke-width="1.4" fill="none">
    <ellipse cx="100" cy="14" rx="4" ry="2"></ellipse>
    <ellipse cx="100" cy="28" rx="2" ry="4"></ellipse>
    <ellipse cx="100" cy="42" rx="4" ry="2"></ellipse>
    <ellipse cx="100" cy="56" rx="2" ry="4"></ellipse>
  </g>
  <circle cx="100" cy="78" r="7" fill="none" stroke="#2B231C" stroke-width="2"></circle>
  <circle cx="100" cy="95" r="5" fill="none" stroke="#2B231C" stroke-width="1.5"></circle>
  
  <g fill="url(#f-grad)" stroke="#2B231C" stroke-width="1.8" stroke-linejoin="round">
    <ellipse cx="100" cy="130" rx="22" ry="30"></ellipse>
    <ellipse cx="100" cy="210" rx="22" ry="30"></ellipse>
    <ellipse cx="60" cy="170" rx="30" ry="22"></ellipse>
    <ellipse cx="140" cy="170" rx="30" ry="22"></ellipse>
    <ellipse cx="72" cy="140" rx="24" ry="24" transform="rotate(-45 72 140)"></ellipse>
    <ellipse cx="128" cy="140" rx="24" ry="24" transform="rotate(45 128 140)"></ellipse>
  </g>
  <circle cx="100" cy="170" r="18" fill="#2B231C"></circle>
  <circle cx="100" cy="170" r="10" fill="#FFFBEA"></circle>
</svg>