<svg xmlns="http://www.w3.org/2000/svg" viewBox="0 0 200 280" width="200" height="280" aria-label="Heart charm">
  <defs>
    <linearGradient id="h-grad" x1="0" y1="0" x2="0" y2="1">
      <stop offset="0" stop-color="#FADB5F"></stop>
      <stop offset="1" stop-color="#CB6E17"></stop>
    </linearGradient>
  </defs>
  
  <path d="M 100 0 L 100 70" stroke="#2B231C" stroke-width="1.5" stroke-linecap="round" stroke-dasharray="0 6"></path>
  <g stroke="#2B231C" stroke-width="1.4" fill="none">
    <ellipse cx="100" cy="12" rx="4" ry="2"></ellipse>
    <ellipse cx="100" cy="24" rx="2" ry="4"></ellipse>
    <ellipse cx="100" cy="36" rx="4" ry="2"></ellipse>
    <ellipse cx="100" cy="48" rx="2" ry="4"></ellipse>
    <ellipse cx="100" cy="60" rx="4" ry="2"></ellipse>
  </g>
  
  <circle cx="100" cy="78" r="7" fill="none" stroke="#2B231C" stroke-width="2"></circle>
  
  <circle cx="100" cy="95" r="5" fill="none" stroke="#2B231C" stroke-width="1.5"></circle>
  
  <path d="M 100 240&#xA;           C 55 195, 45 150, 70 125&#xA;           C 85 112, 98 120, 100 135&#xA;           C 102 120, 115 112, 130 125&#xA;           C 155 150, 145 195, 100 240 Z" fill="url(#h-grad)" stroke="#2B231C" stroke-width="2" stroke-linejoin="round"></path>
  
  <path d="M 78 155 C 80 140, 88 130, 95 128" stroke="#FFFBEA" stroke-width="4" stroke-linecap="round" opacity="0.7" fill="none"></path>
  
  <path d="M 115 170 L 118 177 L 125 180 L 118 183 L 115 190 L 112 183 L 105 180 L 112 177 Z" fill="#FFFBEA" opacity="0.85"></path>
</svg>